<svg xmlns="http://www.w3.org/2000/svg" xmlns:xlink="http://www.w3.org/1999/xlink" width="201" zoomAndPan="magnify" viewBox="0 0 151.5 151.499993" height="201" preserveAspectRatio="xMidYMid meet" version="1.0"><defs><clipPath id="3e7a4d7a09"><path d="M 0 0 L 151 0 L 151 151 L 0 151 Z M 0 0 " clip-rule="nonzero"/></clipPath></defs><path fill="#a6a6a6" d="M 149.777344 75.980469 C 149.777344 116.746094 116.746094 149.777344 75.980469 149.777344 C 35.214844 149.777344 2.1875 116.746094 2.1875 75.980469 C 2.1875 35.214844 35.214844 2.1875 75.980469 2.1875 C 116.746094 2.1875 149.777344 35.214844 149.777344 75.980469 " fill-opacity="1" fill-rule="nonzero"/><g clip-path="url(#3e7a4d7a09)"><path fill="#545454" d="M 75.980469 4.199219 C 36.402344 4.199219 4.199219 36.402344 4.199219 75.980469 C 4.199219 115.558594 36.402344 147.761719 75.980469 147.761719 C 115.558594 147.761719 147.761719 115.558594 147.761719 75.980469 C 147.761719 36.402344 115.558594 4.199219 75.980469 4.199219 Z M 75.980469 151.804688 C 34.179688 151.804688 0.160156 117.78125 0.160156 75.980469 C 0.160156 34.179688 34.179688 0.160156 75.980469 0.160156 C 117.78125 0.160156 151.804688 34.179688 151.804688 75.980469 C 151.804688 117.78125 117.78125 151.804688 75.980469 151.804688 " fill-opacity="1" fill-rule="nonzero"/></g><path fill="#f8f9fd" d="M 75.425781 141.035156 C 96.859375 141.035156 115.84375 131.480469 127.605469 116.804688 C 122.695312 111.5625 116.609375 104.984375 115.09375 103.078125 C 112.464844 99.773438 106.863281 98.558594 99.9375 98.871094 C 93.015625 99.171875 86.40625 98.828125 86.40625 98.828125 L 86.40625 96.167969 C 92.699219 91.675781 97.894531 83.460938 99.546875 75.183594 C 99.757812 75.214844 99.953125 75.261719 100.164062 75.261719 C 102.671875 75.261719 103.09375 72.464844 103.09375 69.417969 C 103.09375 66.382812 102.671875 64.25 100.164062 64.25 C 100.011719 64.25 99.894531 64.28125 99.757812 64.296875 C 99.261719 45.25 90.144531 36.75 77.617188 36.75 C 65.40625 36.75 53.121094 48.734375 54.261719 64.355469 C 53.960938 64.28125 53.660156 64.25 53.359375 64.25 C 50.851562 64.25 50.117188 65.632812 50.117188 68.679688 C 50.117188 71.714844 50.851562 75.261719 53.359375 75.261719 C 53.738281 75.261719 54.097656 75.183594 54.457031 75.082031 C 56.125 83.191406 60.871094 91.226562 66.804688 95.808594 L 66.804688 98.828125 C 66.804688 98.828125 60.210938 99.171875 53.285156 98.871094 C 46.363281 98.558594 40.757812 99.773438 38.117188 103.078125 C 36.464844 105.152344 29.417969 112.734375 24.355469 118.144531 C 36.175781 132.066406 54.652344 141.035156 75.425781 141.035156 " fill-opacity="1" fill-rule="nonzero"/><path fill="#000000" d="M 99.683594 44.453125 C 97.59375 40.519531 93.628906 38.175781 91.722656 37.230469 C 91 35.742188 89.769531 34.164062 87.726562 32.769531 C 81.074219 28.171875 73.335938 28.414062 69.941406 30.304688 C 64.550781 33.339844 63.140625 32.242188 59.820312 29.027344 C 59.820312 29.027344 57.957031 34.316406 61.007812 38.625 C 59.097656 39.886719 56.84375 41.808594 55.449219 44.453125 C 52.640625 49.742188 54.261719 64.355469 54.261719 64.355469 L 56.066406 67.132812 C 56.066406 67.132812 55.238281 57.492188 59.234375 54.050781 C 63.230469 50.640625 66.339844 49.082031 67.269531 46.902344 C 67.660156 46 68.367188 44.605469 69.070312 43.296875 C 69.671875 43.433594 70.257812 43.566406 70.933594 43.65625 C 77.242188 44.574219 82.726562 44.542969 86.585938 44.320312 C 87.097656 45.296875 87.5625 46.226562 87.847656 46.902344 C 88.777344 49.082031 91.902344 50.640625 95.898438 54.050781 C 99.894531 57.492188 99.050781 67.132812 99.050781 67.132812 L 100.871094 64.355469 C 100.871094 64.355469 102.476562 49.742188 99.683594 44.453125 " fill-opacity="1" fill-rule="nonzero"/><path fill="#000000" d="M 115.09375 103.078125 C 112.464844 99.773438 106.863281 98.558594 99.9375 98.871094 C 97.113281 98.992188 94.367188 99.007812 92.066406 98.976562 C 89.558594 104.640625 83.898438 108.589844 77.289062 108.589844 C 70.695312 108.589844 65.015625 104.625 62.507812 98.960938 C 60 99.007812 56.679688 99.007812 53.285156 98.871094 C 46.363281 98.558594 40.757812 99.773438 38.117188 103.078125 C 36.464844 105.152344 29.417969 112.734375 24.355469 118.144531 C 36.175781 132.066406 54.652344 141.035156 75.425781 141.035156 C 96.859375 141.035156 115.84375 131.480469 127.605469 116.804688 C 122.695312 111.5625 116.609375 104.984375 115.09375 103.078125 " fill-opacity="1" fill-rule="nonzero"/></svg>