<svg xmlns="http://www.w3.org/2000/svg" xmlns:xlink="http://www.w3.org/1999/xlink" width="201" zoomAndPan="magnify" viewBox="0 0 151.5 151.499993" height="201" preserveAspectRatio="xMidYMid meet" version="1.0"><defs><clipPath id="52d126f379"><path d="M 0 0 L 151 0 L 151 151 L 0 151 Z M 0 0 " clip-rule="nonzero"/></clipPath></defs><path fill="#a6a6a6" d="M 149.777344 75.980469 C 149.777344 116.746094 116.746094 149.777344 75.980469 149.777344 C 35.214844 149.777344 2.1875 116.746094 2.1875 75.980469 C 2.1875 35.230469 35.214844 2.1875 75.980469 2.1875 C 116.746094 2.1875 149.777344 35.230469 149.777344 75.980469 " fill-opacity="1" fill-rule="nonzero"/><g clip-path="url(#52d126f379)"><path fill="#737373" d="M 75.980469 4.199219 C 36.402344 4.199219 4.199219 36.402344 4.199219 75.980469 C 4.199219 115.558594 36.402344 147.761719 75.980469 147.761719 C 115.558594 147.761719 147.761719 115.558594 147.761719 75.980469 C 147.761719 36.402344 115.558594 4.199219 75.980469 4.199219 Z M 75.980469 151.804688 C 34.164062 151.804688 0.160156 117.78125 0.160156 75.980469 C 0.160156 34.179688 34.164062 0.160156 75.980469 0.160156 C 117.78125 0.160156 151.804688 34.179688 151.804688 75.980469 C 151.804688 117.78125 117.78125 151.804688 75.980469 151.804688 " fill-opacity="1" fill-rule="nonzero"/></g><path fill="#f8f9fd" d="M 75.425781 141.035156 C 96.859375 141.035156 115.84375 131.480469 127.605469 116.804688 C 122.695312 111.5625 116.609375 104.984375 115.09375 103.078125 C 112.464844 99.773438 106.863281 98.570312 99.9375 98.871094 C 93.015625 99.171875 86.40625 98.828125 86.40625 98.828125 L 86.40625 96.167969 C 92.699219 91.675781 97.894531 83.460938 99.546875 75.183594 C 99.757812 75.214844 99.953125 75.261719 100.164062 75.261719 C 102.671875 75.261719 103.09375 72.464844 103.09375 69.417969 C 103.09375 66.382812 102.671875 64.25 100.164062 64.25 C 100.011719 64.25 99.894531 64.28125 99.757812 64.296875 C 99.261719 45.25 90.144531 36.75 77.617188 36.75 C 65.40625 36.75 53.121094 48.734375 54.246094 64.355469 C 53.960938 64.28125 53.660156 64.25 53.359375 64.25 C 50.851562 64.25 50.117188 65.632812 50.117188 68.679688 C 50.117188 71.714844 50.851562 75.261719 53.359375 75.261719 C 53.738281 75.261719 54.097656 75.183594 54.457031 75.082031 C 56.125 83.191406 60.871094 91.226562 66.804688 95.808594 L 66.804688 98.828125 C 66.804688 98.828125 60.210938 99.171875 53.285156 98.871094 C 46.363281 98.570312 40.757812 99.773438 38.117188 103.078125 C 36.464844 105.152344 29.417969 112.734375 24.355469 118.144531 C 36.175781 132.066406 54.652344 141.035156 75.425781 141.035156 " fill-opacity="1" fill-rule="nonzero"/><path fill="#000000" d="M 115.09375 103.078125 C 112.464844 99.773438 106.863281 98.570312 99.9375 98.871094 C 97.113281 98.992188 94.367188 99.007812 92.066406 98.976562 C 89.558594 104.640625 83.207031 119.929688 76.613281 119.929688 C 70.003906 119.929688 65.015625 104.625 62.507812 98.960938 C 60 99.007812 56.679688 99.007812 53.285156 98.871094 C 46.363281 98.570312 40.757812 99.773438 38.117188 103.078125 C 36.464844 105.152344 29.417969 112.734375 24.355469 118.144531 C 36.175781 132.066406 54.652344 141.035156 75.425781 141.035156 C 96.859375 141.035156 115.84375 131.480469 127.605469 116.804688 C 122.695312 111.5625 116.609375 104.984375 115.09375 103.078125 " fill-opacity="1" fill-rule="nonzero"/><path fill="#000000" d="M 107.433594 55.386719 C 105.585938 48.644531 101.847656 39.585938 97.203125 34.585938 C 96.5 33.820312 90.699219 31.085938 89.828125 30.84375 C 87.636719 28.113281 82.425781 26.1875 76.328125 26.1875 C 64.625 26.1875 57.550781 33.820312 56.84375 34.585938 C 52.21875 39.585938 48.464844 48.644531 46.632812 55.386719 C 44.09375 64.6875 37.167969 97.371094 55.523438 94.1875 C 55.179688 93.675781 54.90625 93.015625 54.578125 92.535156 C 57.867188 93.660156 60.285156 94.636719 64.011719 94.710938 C 57.714844 87.710938 57.867188 81.238281 58.632812 72.332031 C 59.277344 64.671875 62.929688 52.683594 62.929688 52.683594 C 62.929688 52.683594 67.496094 51.4375 75.621094 49.199219 C 82.695312 47.820312 85.503906 44.019531 87.695312 43.882812 C 90.820312 50.824219 95.402344 59.160156 95.839844 71.023438 C 96.167969 79.960938 96.347656 87.710938 90.039062 94.710938 C 93.78125 94.636719 96.199219 93.660156 99.472656 92.535156 C 99.140625 93.015625 98.871094 93.675781 98.542969 94.1875 C 116.882812 97.371094 109.972656 64.6875 107.433594 55.386719 " fill-opacity="1" fill-rule="nonzero"/></svg>